<svg width="24" height="25" fill="none" xmlns="http://www.w3.org/2000/svg"><path fill-rule="evenodd" clip-rule="evenodd" d="M3.36.324h17.28A3.359 3.359 0 0124 3.682V20.95a3.359 3.359 0 01-3.36 3.358H3.36A3.359 3.359 0 010 20.95V3.682A3.359 3.359 0 013.36.324zM20.427 2.72a1.333 1.333 0 100 2.667 1.333 1.333 0 000-2.667zM12 8.48c2.12 0 3.84 1.718 3.84 3.836A3.838 3.838 0 0112 16.152a3.838 3.838 0 01-3.84-3.837A3.838 3.838 0 0112 8.48zm0-2.878a6.719 6.719 0 00-6.72 6.716A6.718 6.718 0 0012 19.032c3.71 0 6.72-3.007 6.72-6.715A6.719 6.719 0 0012 5.6z" fill="#000"/></svg>