<svg width="99" height="25" fill="none" xmlns="http://www.w3.org/2000/svg"><path d="M17.87 15.754v9.245h-4.398v-9.245L0 .394h5.026l10.575 11.882h.14L26.316.395h5.027L17.87 15.754z" fill="#fff"/><path d="M28.31 23.032l-.02-.02a6.74 6.74 0 010-9.486L41.72 0l9.439 9.505-13.431 13.527a6.627 6.627 0 01-9.418 0z" fill="#CEE7BA"/><path d="M73.255 20.464L84.319.394h6.003V25h-4.328V5.877h-.175L75.174 25h-4.048L60.516 5.877h-.21V25h-4.328V.395h6.003l11.1 20.07h.174zm25.703 4.534h-4.397V.395h4.397v24.604z" fill="#fff"/></svg>