<svg version="1.0" xmlns="http://www.w3.org/2000/svg" width="160" height="160" viewBox="0 0 120 120"><path d="M112.5 7.7c-.9 4.3-2.3 10-3 12.8-.8 2.7-2.1 8.1-3 12-4.7 21-12.6 40.8-17.7 44.3-1 .7-1.6 1.7-1.3 2.2.6 1-2.5 5.2-9.8 12.6-3.4 3.6-5.5 6.4-4.8 6.8 1.6 1 8.2-2.1 13.3-6.5 4-3.3 4.7-3.6 5.2-2.1.4 1.3.4 1.3.3-.3 0-1.1 1.1-3.9 2.6-6.2 1.4-2.3 2.9-5.4 3.3-7 .4-1.5 1.8-4.3 3.2-6.1 1.7-2.4 2.7-5.4 3.3-10 .6-5.3 4.7-21.8 8.5-34.3.2-.9 1-1.6 1.7-1.6 6 .2 5.7.7 5.7-12.3V0h-2.9c-2.8 0-3 .3-4.6 7.7z"/><path d="M102.1 28.2c-3.8 17.7-6.4 26.2-9.1 30-1.6 2.2-3.2 5.5-3.5 7.2-.4 2.1-1.6 3.7-3.6 4.8L83 71.9l-.1-3.7-.1-3.7-.9 3c-1.1 3.8-31 34.2-43.6 44.5-5.1 4.1-8.8 7.7-8.2 7.8.9.4 14.1-10.8 27.9-23.7 4.1-3.9 7.8-7.1 8.2-7.1.4 0 4.5-3.4 9-7.6 4.6-4.1 9.6-8.3 11.2-9.2 4.7-2.8 10.1-15 14.1-32.2 2-8.2 3.8-15.6 4.1-16.5.4-.8.2-1.5-.3-1.5s-1.5 2.8-2.2 6.2zM52.8 50.5c-5.9 5.8-12.6 11.8-14.9 13.4L33.8 67l2.8 1.1c3.6 1.3 9.2-1.1 15.4-6.7 3.8-3.4 4-3.5 4-1.3 0 1.2-.8 3.2-1.7 4.3l-1.8 2.1 2.4-2c2.2-1.8 2.4-1.8 1.8-.2-.4.9 3.5-1.8 8.6-6 5.1-4.3 11-9.3 13.2-11.1l4-3.3-5.2 2.6c-2.8 1.5-8.1 5.2-11.7 8.1-5.7 4.8-6.5 5.2-7.1 3.5-.3-1.2.4-3.3 2-5.7 2.8-4.2 3.8-7.2 3.3-10.2-.2-1.7-2.3-.1-11 8.3z"/><path d="M86.1 48.8c-.6 1.1-6.3 6.9-12.8 12.8-6.5 6-11.9 11.7-12 12.6-.5 3.2 5 2.2 10.4-1.8C81.8 64.8 86.5 59 88 52.5c.9-4.2-.3-6.7-1.9-3.7z"/></svg>