<svg width="17" height="17" fill="none" xmlns="http://www.w3.org/2000/svg"><path d="M4.57 12.041c2.593 2.602 5.748 4.605 8.324 4.605 1.15 0 2.162-.404 2.97-1.3.475-.528.765-1.134.765-1.74a1.47 1.47 0 00-.633-1.24l-2.698-1.916c-.43-.299-.782-.44-1.099-.44-.413 0-.782.23-1.186.634l-.633.632a.51.51 0 01-.343.141.726.726 0 01-.36-.105c-.554-.3-1.503-1.108-2.382-1.987-.879-.879-1.696-1.82-1.986-2.382a.754.754 0 01-.097-.36c0-.105.035-.229.132-.334l.633-.642c.395-.413.632-.773.632-1.186 0-.325-.14-.677-.44-1.099L4.264.65C3.938.193 3.48 0 2.979 0c-.597 0-1.195.264-1.713.765C.386 1.59 0 2.619 0 3.753c0 2.575 1.978 5.695 4.57 8.288z" fill="#CEE7BA"/></svg>