<svg width="24" height="25" viewBox="0 0 24 25" fill="none" xmlns="http://www.w3.org/2000/svg">
<path fill-rule="evenodd" clip-rule="evenodd" d="M3.36 0.324219H20.64C22.4957 0.324219 24 1.8275 24 3.68189V20.9499C24 22.8043 22.4957 24.3076 20.64 24.3076H3.36C1.50432 24.3076 0 22.8043 0 20.9499V3.68189C0 1.8275 1.50432 0.324219 3.36 0.324219ZM20.4267 2.72021C19.6907 2.72021 19.0934 3.31707 19.0934 4.05249C19.0934 4.78791 19.6907 5.38477 20.4267 5.38477C21.1627 5.38477 21.7601 4.78791 21.7601 4.05249C21.7601 3.31707 21.1627 2.72021 20.4267 2.72021ZM12 8.479C14.1208 8.479 15.84 10.1966 15.84 12.3154C15.84 14.4342 14.1208 16.1519 12 16.1519C9.87921 16.1519 8.15997 14.4342 8.15997 12.3154C8.15997 10.1966 9.87921 8.479 12 8.479ZM12 5.60107C8.28925 5.60107 5.28003 8.60831 5.28003 12.3167C5.28003 16.025 8.28925 19.0322 12 19.0322C15.7108 19.0322 18.72 16.025 18.72 12.3167C18.72 8.60831 15.7108 5.60107 12 5.60107Z" fill="black"/>
</svg>
