<svg width="99" height="25" viewBox="0 0 99 25" fill="none" xmlns="http://www.w3.org/2000/svg">
<path d="M17.8701 15.7538V24.9985H13.4724V15.7538L0 0.394531H5.0263L15.6014 12.2758H15.7411L26.3163 0.394531H31.3426L17.8701 15.7538Z" fill="white"/>
<path d="M28.3101 23.0317L28.2907 23.0122C25.6896 20.3926 25.6896 16.146 28.2907 13.5265L41.7204 0L51.1586 9.50525L37.7276 23.0317C35.1278 25.65 30.9099 25.65 28.3101 23.0317Z" fill="#CEE7BA"/>
<path d="M73.255 20.4641L84.319 0.394531H90.3219V24.9998H85.994V5.87728H85.8194L75.1744 24.9985H71.126L60.5159 5.87728H60.3064V24.9985H55.9785V0.394531H61.9814L73.0804 20.4654H73.255V20.4641Z" fill="white"/>
<path d="M98.9582 24.9985H94.5605V0.394531H98.9582V24.9985Z" fill="white"/>
</svg>
