<?xml version="1.0" standalone="no"?>
<!DOCTYPE svg PUBLIC "-//W3C//DTD SVG 20010904//EN"
 "http://www.w3.org/TR/2001/REC-SVG-20010904/DTD/svg10.dtd">
<svg version="1.0" xmlns="http://www.w3.org/2000/svg"
 width="120.000000pt" height="120.000000pt" viewBox="0 0 120.000000 120.000000"
 preserveAspectRatio="xMidYMid meet">
<metadata>
Created by potrace 1.16, written by Peter Selinger 2001-2019
</metadata>
<g transform="translate(0.000000,120.000000) scale(0.100000,-0.100000)"
fill="#000000" stroke="none">
<path d="M1125 1123 c-9 -43 -23 -100 -30 -128 -8 -27 -21 -81 -30 -120 -47
-210 -126 -408 -177 -443 -10 -7 -16 -17 -13 -22 6 -10 -25 -52 -98 -126 -34
-36 -55 -64 -48 -68 16 -10 82 21 133 65 40 33 47 36 52 21 4 -13 4 -13 3 3 0
11 11 39 26 62 14 23 29 54 33 70 4 15 18 43 32 61 17 24 27 54 33 100 6 53
47 218 85 343 2 9 10 16 17 16 60 -2 57 -7 57 123 l0 120 -29 0 c-28 0 -30 -3
-46 -77z"/>
<path d="M1021 918 c-38 -177 -64 -262 -91 -300 -16 -22 -32 -55 -35 -72 -4
-21 -16 -37 -36 -48 l-29 -17 -1 37 -1 37 -9 -30 c-11 -38 -310 -342 -436
-445 -51 -41 -88 -77 -82 -78 9 -4 141 108 279 237 41 39 78 71 82 71 4 0 45
34 90 76 46 41 96 83 112 92 47 28 101 150 141 322 20 82 38 156 41 165 4 8 2
15 -3 15 -5 0 -15 -28 -22 -62z"/>
<path d="M528 695 c-59 -58 -126 -118 -149 -134 l-41 -31 28 -11 c36 -13 92
11 154 67 38 34 40 35 40 13 0 -12 -8 -32 -17 -43 l-18 -21 24 20 c22 18 24
18 18 2 -4 -9 35 18 86 60 51 43 110 93 132 111 l40 33 -52 -26 c-28 -15 -81
-52 -117 -81 -57 -48 -65 -52 -71 -35 -3 12 4 33 20 57 28 42 38 72 33 102 -2
17 -23 1 -110 -83z"/>
<path d="M861 712 c-6 -11 -63 -69 -128 -128 -65 -60 -119 -117 -120 -126 -5
-32 50 -22 104 18 101 76 148 134 163 199 9 42 -3 67 -19 37z"/>
</g>
</svg>
