<svg width="17" height="17" viewBox="0 0 17 17" fill="none" xmlns="http://www.w3.org/2000/svg">
<path d="M4.57031 12.041C7.16309 14.6426 10.3184 16.6465 12.8936 16.6465C14.0449 16.6465 15.0557 16.2422 15.8643 15.3457C16.3389 14.8184 16.6289 14.2119 16.6289 13.6055C16.6289 13.1396 16.4443 12.6826 15.9961 12.3662L13.2979 10.4502C12.8672 10.1514 12.5156 10.0107 12.1992 10.0107C11.7861 10.0107 11.417 10.2393 11.0127 10.6436L10.3799 11.2764C10.2744 11.373 10.1514 11.417 10.0371 11.417C9.89648 11.417 9.76465 11.3643 9.67676 11.3115C9.12305 11.0127 8.17383 10.2041 7.29492 9.3252C6.41602 8.44629 5.59863 7.50586 5.30859 6.94336C5.25586 6.84668 5.21191 6.72363 5.21191 6.58301C5.21191 6.47754 5.24707 6.35449 5.34375 6.24902L5.97656 5.60742C6.37207 5.19434 6.60938 4.83398 6.60938 4.4209C6.60938 4.0957 6.46875 3.74414 6.16992 3.32227L4.2627 0.650391C3.9375 0.193359 3.48047 0 2.97949 0C2.38184 0 1.78418 0.263672 1.26562 0.764648C0.386719 1.59082 0 2.61914 0 3.75293C0 6.32812 1.97754 9.44824 4.57031 12.041Z" fill="#CEE7BA"/>
</svg>
