<?xml version="1.0" standalone="no"?>
<!DOCTYPE svg PUBLIC "-//W3C//DTD SVG 20010904//EN"
 "http://www.w3.org/TR/2001/REC-SVG-20010904/DTD/svg10.dtd">
<svg version="1.0" xmlns="http://www.w3.org/2000/svg"
 width="3168.000000pt" height="3168.000000pt" viewBox="0 0 3168.000000 3168.000000"
 preserveAspectRatio="xMidYMid meet">
<metadata>
Created by potrace 1.11, written by Peter Selinger 2001-2013
</metadata>
<g transform="translate(0.000000,3168.000000) scale(0.100000,-0.100000)"
fill="#000000" stroke="none">
<path d="M13042 19532 c-161 -164 -561 -568 -890 -899 -328 -331 -662 -667
-741 -747 -80 -80 -148 -146 -153 -146 -4 0 -8 -3 -8 -8 0 -4 -271 -280 -602
-614 -1459 -1469 -1625 -1637 -1668 -1684 -63 -70 -85 -97 -135 -167 -25 -34
-49 -67 -54 -73 -5 -6 -31 -49 -57 -95 -27 -46 -52 -85 -56 -87 -5 -2 -8 -7
-8 -12 0 -5 -16 -43 -36 -86 -49 -106 -90 -212 -99 -254 -4 -19 -11 -39 -15
-45 -8 -11 -25 -77 -35 -134 -3 -19 -8 -37 -10 -40 -2 -4 -6 -27 -10 -51 -4
-25 -13 -83 -20 -130 -19 -128 -12 -514 12 -610 3 -14 5 -29 4 -33 -1 -5 4
-27 10 -50 6 -23 13 -53 16 -67 7 -42 23 -104 33 -125 8 -18 19 -63 21 -82 0
-5 7 -19 14 -33 7 -14 19 -41 26 -60 50 -141 213 -431 284 -506 5 -6 19 -23
30 -39 91 -125 310 -330 485 -451 60 -42 260 -155 260 -147 0 3 9 -2 21 -13
12 -10 23 -18 25 -16 2 1 21 -5 42 -14 112 -48 298 -108 371 -120 14 -3 32 -7
39 -9 8 -3 37 -8 65 -11 29 -4 55 -8 58 -10 16 -9 172 -18 309 -18 209 0 327
14 490 56 41 10 84 21 94 23 112 26 353 129 476 204 19 12 43 24 53 27 9 4 17
10 17 15 0 5 6 9 13 9 8 0 22 9 32 20 10 11 24 20 31 20 7 0 14 3 16 8 2 4 39
34 83 67 88 65 552 530 3363 3363 309 312 691 696 848 853 l285 287 -276 278
c-152 154 -691 697 -1198 1207 -507 510 -1060 1067 -1229 1237 -169 171 -313
310 -320 309 -7 0 -145 -134 -306 -297z"/>
<path d="M0 19713 c0 -1 10 -12 23 -25 12 -13 47 -52 77 -88 30 -36 64 -74 75
-86 23 -25 55 -62 135 -154 30 -35 66 -76 80 -91 31 -33 56 -62 144 -164 38
-44 75 -84 83 -88 7 -4 13 -12 13 -17 0 -4 17 -26 38 -48 20 -22 55 -61 77
-87 22 -26 49 -57 60 -69 18 -19 111 -126 175 -200 14 -16 36 -41 50 -56 14
-15 45 -51 69 -80 25 -29 50 -58 55 -64 11 -11 151 -168 171 -192 6 -7 30 -35
55 -64 25 -29 61 -70 80 -91 19 -21 44 -49 55 -62 72 -84 125 -144 158 -179
20 -22 37 -42 37 -44 0 -3 10 -15 23 -28 12 -12 47 -51 77 -85 30 -35 60 -68
66 -75 6 -6 45 -51 88 -101 43 -49 88 -101 100 -115 12 -14 44 -50 71 -80 26
-30 75 -86 109 -124 33 -38 71 -81 83 -95 12 -14 31 -35 41 -46 10 -11 47 -54
83 -95 35 -41 73 -84 84 -96 11 -11 31 -34 45 -50 14 -16 54 -63 90 -104 36
-41 70 -80 75 -87 6 -6 26 -29 45 -50 19 -21 60 -67 90 -102 30 -35 66 -77 80
-92 24 -26 101 -114 142 -162 62 -71 126 -144 147 -166 13 -14 40 -46 60 -70
20 -24 52 -61 71 -82 61 -64 90 -101 90 -112 0 -6 3 -8 6 -5 3 4 31 -24 62
-60 81 -96 94 -110 127 -147 17 -18 48 -54 70 -80 22 -26 51 -59 65 -74 14
-15 52 -58 85 -96 33 -38 65 -73 70 -79 6 -7 39 -45 74 -86 36 -41 74 -85 85
-96 12 -12 39 -43 61 -69 22 -26 54 -63 70 -81 17 -18 38 -42 48 -53 16 -20
17 -106 17 -1501 l0 -1479 704 0 704 0 0 1473 c0 811 4 1481 9 1489 7 14 80
100 138 163 11 12 38 43 60 69 22 25 51 59 65 74 14 15 50 56 80 91 30 34 60
68 65 74 6 6 39 45 75 86 36 41 76 87 90 102 14 15 36 40 50 55 14 16 48 55
75 88 28 33 55 65 61 70 6 6 49 53 94 105 82 95 106 122 210 240 30 34 64 73
75 85 59 69 122 141 140 161 65 73 126 142 142 160 10 12 43 49 73 84 30 35
63 72 73 84 10 12 42 48 70 80 29 33 60 69 70 80 10 12 42 48 72 81 29 33 65
76 81 95 16 19 40 46 54 60 14 15 50 56 80 91 30 35 64 73 75 84 11 12 40 45
65 75 25 30 54 63 65 75 22 23 111 125 166 190 19 21 41 46 49 55 8 9 40 44
70 79 97 112 135 155 150 171 8 9 58 65 110 125 52 61 97 112 100 115 3 3 37
41 75 85 39 44 75 85 80 91 6 6 31 35 56 65 26 30 57 66 70 80 21 22 98 110
152 173 10 12 40 46 67 76 27 30 58 66 70 80 12 14 36 41 53 60 18 19 57 64
87 100 30 35 66 75 79 89 13 15 44 50 70 80 25 30 57 67 71 81 14 15 46 51 72
81 25 30 54 63 65 75 10 11 43 49 73 84 30 35 69 78 85 95 17 18 39 44 50 58
26 32 122 142 157 178 15 16 24 29 20 30 -4 1 -366 2 -804 3 l-798 1 -32 -38
c-18 -21 -46 -53 -63 -71 -16 -18 -57 -63 -90 -101 -33 -37 -69 -78 -80 -91
-11 -12 -47 -52 -80 -89 -33 -37 -71 -79 -84 -94 -46 -51 -140 -156 -158 -177
-68 -79 -223 -252 -258 -289 -11 -12 -42 -48 -70 -80 -27 -33 -61 -71 -75 -85
-14 -14 -50 -55 -80 -89 -30 -35 -70 -80 -89 -100 -18 -20 -51 -56 -73 -81
-22 -25 -65 -74 -96 -109 -31 -35 -69 -77 -84 -93 -16 -16 -28 -31 -28 -33 0
-2 -12 -17 -27 -33 -25 -25 -126 -138 -173 -192 -35 -41 -146 -165 -193 -215
-26 -29 -56 -63 -66 -76 -10 -13 -35 -41 -55 -62 -20 -21 -36 -43 -36 -48 0
-5 -7 -9 -15 -9 -8 0 -15 -4 -15 -10 0 -5 -8 -18 -17 -28 -17 -17 -121 -133
-208 -231 -22 -25 -56 -63 -75 -84 -65 -72 -197 -221 -223 -251 -10 -12 -33
-37 -50 -57 -18 -19 -59 -66 -92 -103 -33 -38 -73 -83 -90 -101 -16 -17 -57
-63 -90 -101 -33 -37 -71 -80 -85 -95 -14 -15 -50 -55 -80 -90 -30 -35 -64
-73 -75 -85 -11 -12 -47 -53 -80 -90 -33 -38 -77 -86 -97 -106 -20 -21 -34
-38 -32 -38 2 0 -13 -18 -33 -40 -49 -51 -71 -51 -117 3 -21 23 -61 68 -89
100 -29 32 -61 69 -72 81 -11 13 -51 58 -90 101 -101 113 -115 128 -165 186
-25 28 -54 61 -65 73 -11 12 -54 59 -95 106 -89 101 -137 154 -169 189 -13 14
-42 48 -65 74 -22 27 -52 61 -66 76 -37 40 -138 152 -168 186 -15 17 -61 69
-101 115 -41 47 -83 94 -93 105 -48 52 -88 97 -143 160 -33 38 -82 93 -110
123 -71 79 -84 93 -140 157 -27 32 -62 70 -76 86 -14 15 -52 58 -85 95 -32 37
-70 79 -84 94 -21 24 -108 122 -160 180 -78 88 -138 156 -155 174 -11 13 -47
53 -80 91 -33 37 -71 80 -85 95 -23 25 -121 135 -163 184 -10 12 -44 49 -75
84 -74 83 -101 112 -137 153 -74 83 -181 204 -195 219 -8 9 -42 47 -75 85 -33
37 -71 80 -85 95 -14 15 -38 43 -55 61 -16 19 -66 75 -109 124 -44 50 -84 94
-88 100 -7 7 -1618 16 -1618 8z"/>
<path d="M17921 19710 c-4 -3 -7 -1774 -7 -3937 l0 -3932 690 2 691 2 2 3045
c1 1675 2 3050 2 3055 1 6 16 12 34 13 32 2 32 2 152 -215 66 -119 139 -250
163 -292 23 -42 50 -89 58 -106 8 -16 21 -39 27 -50 7 -11 32 -56 56 -100 24
-44 53 -96 64 -115 11 -19 34 -62 52 -95 18 -33 57 -103 86 -155 30 -52 61
-109 69 -125 8 -17 17 -32 20 -35 3 -3 15 -23 27 -45 28 -54 52 -96 99 -180
21 -38 48 -87 59 -107 11 -20 47 -85 80 -145 33 -59 66 -121 75 -138 8 -16 18
-31 22 -33 4 -2 8 -8 8 -14 0 -5 9 -22 20 -38 11 -15 17 -30 13 -34 -3 -3 -1
-6 5 -6 7 0 12 -4 12 -9 0 -5 29 -61 65 -124 36 -63 65 -120 65 -126 0 -6 4
-11 9 -11 5 0 16 -17 25 -37 9 -21 32 -65 51 -98 74 -127 185 -334 185 -344 0
-6 3 -11 8 -11 4 0 25 -35 47 -78 22 -42 43 -79 46 -82 4 -3 24 -39 46 -80 22
-41 50 -93 63 -115 13 -22 35 -62 49 -90 14 -27 29 -52 33 -53 5 -2 6 -8 2
-13 -3 -5 0 -9 5 -9 6 0 11 -4 11 -9 0 -5 16 -38 36 -73 21 -34 53 -92 72
-128 20 -36 48 -87 63 -115 16 -27 37 -66 47 -85 10 -19 46 -84 80 -143 34
-60 62 -113 62 -118 0 -5 5 -9 12 -9 6 0 9 -3 5 -6 -3 -3 4 -23 17 -43 12 -20
40 -67 61 -106 44 -82 123 -223 135 -245 5 -8 23 -41 39 -72 39 -73 55 -102
61 -108 3 -3 12 -18 20 -35 8 -16 17 -32 20 -35 3 -3 16 -27 30 -55 14 -27 32
-61 41 -75 17 -27 82 -145 121 -220 13 -25 25 -47 28 -50 7 -7 57 -97 78 -140
9 -19 19 -37 22 -40 3 -3 10 -14 16 -25 6 -11 26 -47 44 -80 19 -33 45 -80 57
-105 13 -25 28 -52 33 -60 25 -41 133 -236 175 -315 27 -49 51 -92 54 -95 3
-3 19 -30 34 -60 16 -30 43 -79 60 -108 l31 -52 649 0 c595 0 648 2 654 17 4
9 30 58 58 107 28 50 65 116 81 146 155 281 220 396 226 398 5 2 8 12 8 23 0
10 4 19 9 19 5 0 11 8 14 18 3 9 24 49 46 87 47 83 80 143 112 205 13 25 27
47 30 50 3 3 27 46 54 95 26 50 55 103 64 120 9 16 22 36 29 43 7 8 10 18 7
23 -4 5 -3 9 2 9 4 0 19 21 33 48 13 26 28 50 33 53 5 3 8 8 7 10 -3 8 23 59
31 59 4 0 10 12 14 27 3 15 10 30 13 33 4 3 20 30 36 60 16 30 36 63 44 73 8
9 12 17 7 17 -4 0 -2 7 5 15 17 21 68 113 81 148 6 15 15 27 20 27 5 0 9 4 9
10 0 5 43 85 95 178 52 94 95 175 95 181 0 6 5 11 10 11 6 0 10 6 10 14 0 8 6
21 13 28 6 7 22 33 35 58 36 69 66 124 72 130 5 5 8 10 80 145 24 44 46 85 50
90 4 6 23 39 43 75 19 36 53 97 74 135 22 39 57 102 78 140 21 39 46 81 55 95
10 14 21 35 24 47 4 13 13 29 19 35 7 7 25 38 40 68 15 30 32 62 37 70 5 8 29
51 53 95 25 44 55 98 67 120 28 50 55 97 115 205 84 151 97 174 125 225 15 28
36 67 48 87 12 21 38 68 58 105 20 37 40 73 44 78 4 6 24 42 45 80 21 39 87
157 146 263 60 107 109 195 109 197 0 2 22 41 48 87 26 46 51 90 55 98 4 8 13
24 20 35 7 11 32 56 56 100 45 81 75 135 117 210 12 22 37 67 54 100 18 33 39
68 48 78 8 9 12 17 7 17 -4 0 -2 7 5 15 16 20 69 114 77 138 3 9 10 17 15 17
5 0 6 5 3 10 -3 6 -2 10 2 10 5 0 14 12 20 28 6 15 28 55 47 90 20 34 51 90
70 125 30 53 39 62 63 62 27 0 28 -2 28 -53 0 -28 4 -52 8 -52 5 0 5 -5 1 -12
-10 -16 -11 -169 -1 -175 4 -2 4 -9 0 -15 -9 -15 -8 -71 1 -86 4 -7 4 -12 -1
-12 -10 0 -10 -131 1 -148 4 -7 4 -12 -1 -12 -10 0 -10 -131 1 -148 4 -7 4
-12 -1 -12 -10 0 -10 -131 1 -148 4 -7 4 -12 -1 -12 -4 0 -7 -53 -6 -117 2
-65 3 -122 3 -128 0 -5 -1 -36 -3 -67 -1 -32 1 -58 6 -58 4 0 5 -5 1 -12 -11
-17 -11 -108 -1 -108 5 0 5 -5 1 -12 -11 -17 -11 -108 -1 -108 5 0 5 -5 1 -12
-11 -17 -11 -108 -1 -108 5 0 5 -5 1 -12 -11 -17 -11 -108 -1 -108 5 0 5 -5 1
-12 -11 -17 -11 -108 -1 -108 5 0 5 -5 1 -12 -11 -17 -11 -108 -1 -108 5 0 5
-5 1 -12 -11 -17 -11 -108 -1 -108 5 0 5 -5 1 -12 -11 -17 -11 -108 -1 -108 5
0 5 -5 1 -12 -4 -6 -7 -26 -7 -43 0 -17 3 -37 7 -43 4 -7 4 -12 -1 -12 -10 0
-10 -131 1 -148 4 -7 4 -12 -1 -12 -10 0 -10 -131 1 -148 4 -7 4 -12 -1 -12
-10 0 -10 -131 1 -148 4 -7 4 -12 -1 -12 -10 0 -10 -221 1 -238 4 -6 3 -12 -1
-12 -5 0 -7 -26 -6 -57 2 -32 3 -64 3 -70 0 -7 0 -33 0 -58 0 -25 0 -52 0 -60
0 -8 0 -35 0 -60 0 -25 0 -52 0 -60 0 -8 -1 -34 -3 -57 -1 -24 2 -49 7 -55 5
-8 5 -13 0 -13 -11 0 -11 -91 0 -108 4 -7 4 -12 -1 -12 -10 0 -10 -91 1 -108
4 -7 4 -12 -1 -12 -10 0 -10 -91 1 -108 4 -7 4 -12 -1 -12 -10 0 -10 -91 1
-108 4 -7 4 -12 -1 -12 -10 0 -10 -91 0 -106 3 -6 4 -14 0 -18 -10 -10 -10
-209 0 -223 5 -7 6 -13 1 -13 -11 0 -11 -91 0 -108 4 -7 4 -12 -1 -12 -10 0
-10 -91 1 -108 4 -7 4 -12 -1 -12 -10 0 -10 -91 1 -108 4 -7 4 -12 -1 -12 -10
0 -10 -91 1 -108 4 -7 4 -12 -1 -12 -4 0 -7 -33 -6 -72 2 -40 3 -79 3 -85 0
-7 0 -33 0 -58 0 -25 0 -52 0 -60 0 -8 0 -35 0 -60 0 -25 0 -52 0 -60 0 -8 0
-35 0 -60 0 -25 0 -51 0 -57 0 -7 -1 -69 -3 -138 -1 -69 1 -131 6 -137 5 -7 6
-13 1 -13 -11 0 -11 -91 0 -108 4 -7 4 -12 -1 -12 -10 0 -10 -91 1 -108 4 -7
4 -12 -1 -12 -10 0 -10 -91 1 -108 4 -7 3 -12 -2 -12 -10 0 -9 -30 2 -48 4 -6
3 -12 -3 -12 -6 0 -8 -7 -5 -15 5 -12 101 -14 695 -14 379 -1 689 3 690 7 4
30 3 7855 -1 7861 -3 3 -435 6 -960 6 l-955 0 -16 -25 c-8 -14 -37 -65 -63
-115 -27 -49 -52 -94 -56 -100 -4 -5 -27 -46 -50 -90 -24 -44 -73 -134 -110
-200 -37 -66 -70 -127 -73 -135 -4 -8 -16 -29 -26 -47 -11 -17 -39 -67 -62
-110 -23 -43 -61 -113 -85 -155 -24 -43 -44 -82 -44 -88 0 -5 -4 -10 -8 -10
-4 0 -13 -12 -19 -27 -7 -16 -35 -68 -63 -118 -28 -49 -54 -98 -57 -107 -3
-10 -10 -18 -15 -18 -5 0 -6 -4 -3 -10 3 -5 1 -10 -4 -10 -6 0 -11 -5 -11 -10
0 -6 -20 -46 -44 -88 -24 -43 -66 -118 -92 -168 -26 -49 -52 -96 -58 -104 -6
-8 -25 -42 -41 -75 -17 -33 -32 -62 -35 -65 -6 -6 -24 -38 -57 -100 -13 -25
-37 -67 -52 -95 -15 -27 -43 -79 -63 -115 -19 -36 -44 -81 -55 -100 -44 -79
-87 -157 -110 -200 -13 -25 -28 -52 -33 -60 -6 -8 -30 -51 -54 -95 -24 -44
-53 -97 -65 -118 -12 -22 -43 -78 -68 -125 -25 -48 -57 -104 -70 -124 -12 -21
-23 -40 -23 -43 0 -4 -30 -59 -165 -300 -15 -27 -42 -77 -60 -110 -17 -33 -41
-76 -52 -95 -11 -19 -39 -71 -63 -115 -24 -44 -49 -83 -54 -87 -6 -4 -8 -8 -3
-8 4 0 -3 -17 -16 -37 -12 -21 -29 -51 -37 -68 -8 -16 -21 -36 -27 -43 -7 -7
-13 -17 -13 -22 0 -4 -17 -39 -38 -77 -22 -37 -58 -104 -82 -148 -24 -44 -52
-93 -62 -110 -10 -16 -27 -48 -38 -70 -11 -22 -33 -62 -49 -90 -15 -27 -47
-86 -71 -130 -24 -44 -46 -82 -49 -85 -12 -10 -31 -50 -31 -65 0 -8 -4 -15 -8
-15 -5 0 -16 -18 -26 -40 -10 -22 -22 -40 -27 -40 -5 0 -8 -3 -7 -7 2 -8 -25
-62 -82 -163 -17 -30 -36 -66 -43 -80 -6 -14 -17 -31 -24 -38 -7 -7 -13 -17
-13 -22 0 -5 -21 -47 -47 -92 -27 -46 -55 -97 -63 -113 -8 -17 -17 -32 -20
-35 -3 -3 -17 -27 -31 -55 -29 -55 -75 -138 -126 -230 -19 -33 -39 -71 -46
-85 -6 -14 -14 -27 -17 -30 -3 -3 -14 -21 -23 -40 -10 -19 -22 -42 -27 -50 -9
-14 -56 -99 -130 -235 -197 -362 -186 -345 -220 -345 -19 0 -60 51 -59 74 1 5
-3 12 -8 15 -5 3 -53 87 -108 186 -54 99 -105 191 -114 205 -9 14 -27 48 -42
75 -14 28 -36 68 -49 90 -47 81 -80 141 -90 164 -6 13 -20 37 -31 52 -11 16
-17 29 -13 29 4 0 1 8 -7 18 -15 19 -29 42 -69 117 -28 52 -52 96 -126 227
-24 43 -44 82 -44 88 0 5 -4 10 -10 10 -5 0 -10 5 -10 10 0 6 -20 45 -44 88
-24 42 -63 113 -86 157 -24 44 -46 85 -50 90 -4 6 -21 36 -39 68 -59 109 -94
173 -168 304 -40 72 -73 136 -73 142 0 6 -5 11 -11 11 -5 0 -7 5 -4 10 3 6 1
10 -4 10 -6 0 -11 6 -11 14 0 8 -6 21 -12 28 -7 7 -22 31 -34 53 -20 38 -53
99 -115 210 -15 28 -41 75 -57 105 -16 30 -39 71 -50 90 -22 37 -41 72 -89
160 -17 30 -88 159 -158 285 -70 127 -142 257 -160 290 -18 33 -51 93 -74 134
-22 41 -41 78 -41 82 0 5 -4 9 -10 9 -5 0 -10 5 -10 10 0 10 -16 40 -128 239
-23 42 -45 84 -49 94 -3 9 -10 17 -16 17 -6 0 -8 3 -4 6 3 4 -5 23 -18 43 -14
19 -25 39 -25 43 0 4 -13 29 -29 56 -16 27 -44 76 -61 108 -18 33 -44 79 -58
104 -13 25 -40 74 -60 110 -19 36 -38 70 -42 75 -4 6 -27 46 -50 90 -24 44
-52 96 -63 115 -35 61 -112 200 -147 265 -15 28 -60 109 -100 180 -40 72 -89
162 -110 200 -20 39 -56 102 -79 142 -22 40 -41 77 -41 83 0 5 -4 10 -10 10
-5 0 -10 5 -10 10 0 6 -20 45 -44 88 -24 42 -60 109 -81 147 -21 39 -41 72
-44 75 -3 3 -7 10 -8 16 -1 5 -23 48 -50 95 -26 46 -55 98 -63 114 -8 17 -17
32 -20 35 -6 6 -18 28 -55 98 -15 29 -30 52 -34 53 -24 4 -1904 3 -1910 -1z"/>
<path d="M30260 19665 c-3 -485 0 -7739 4 -7742 2 -2 1 -17 -3 -31 -5 -15 -6
-33 -4 -39 4 -10 154 -13 707 -13 l702 0 0 3935 c0 2164 -2 3935 -5 3936 -3 1
-320 2 -704 3 l-697 1 0 -50z"/>
</g>
</svg>
